<svg width="119" height="18" viewBox="0 0 119 18" fill="none" xmlns="http://www.w3.org/2000/svg">
<path d="M0.28 17H6.584C6.584 17 14.008 17.16 14.008 12.392C14.008 9.544 11.352 8.584 9.24 8.328C11.032 7.816 12.824 6.728 12.824 4.488C12.824 0.615999 5.912 0.615999 5.912 0.615999H0.28V17ZM4.696 8.232V1.128H5.912C6.36 1.128 7.864 1.48 7.864 5C7.864 8.072 6.712 8.232 5.912 8.232H4.696ZM4.696 16.52V8.84H6.584C7.224 8.84 8.728 8.936 8.728 13.032C8.728 16.072 7.544 16.52 6.584 16.52H4.696ZM15.78 17H19.588V0.327999L15.78 1.384V17ZM27.339 17.128C29.227 17.128 33.131 15.656 33.131 11.784C33.131 7.912 29.227 6.44 27.339 6.44C25.419 6.44 21.515 7.912 21.515 11.784C21.515 15.656 25.419 17.128 27.339 17.128ZM27.339 16.648C25.867 16.648 25.771 13.704 25.771 11.784C25.771 8.616 26.219 6.92 27.339 6.92C28.779 6.92 28.875 9.896 28.875 11.784C28.875 14.92 28.427 16.648 27.339 16.648ZM39.1253 17.128C41.6853 17.128 43.5733 15.88 44.5973 13.032L44.2453 12.84C44.2453 12.84 43.4133 14.76 41.4293 14.76C39.4453 14.76 38.2933 12.776 38.2933 10.664C38.2933 8.584 39.2533 6.92 40.3413 6.92C40.5333 6.92 40.6293 7.048 40.6293 7.176C40.6293 7.528 39.8293 8.008 39.8293 9.192C39.8293 10.376 40.9173 11.048 41.6533 11.048C42.3893 11.048 43.7333 10.568 43.7333 9.032C43.7333 7.464 42.2292 6.44 40.4373 6.44C36.1173 6.44 34.4213 9.928 34.4213 12.136C34.4213 15.304 36.5653 17.128 39.1253 17.128ZM46.1863 17H49.9943V12.296L50.1543 12.136L52.7143 17H57.2903L53.1943 9.16L55.7543 6.6H55.0823L49.9943 11.656V0.327999L46.1863 0.967999V17ZM58.5613 17H59.0733V3.272L64.8333 16.808H65.1853L70.2413 0.903999V17H74.6573V0.615999H69.8253L66.9453 9.608L63.0413 0.615999H58.5613V17ZM81.3135 17.128C84.6415 17.128 86.8495 14.728 87.1695 13.16L86.8495 13.032C86.8495 13.032 86.1455 14.92 83.3935 14.92C80.6735 14.92 80.5455 10.952 80.5455 10.952L86.9775 10.92C86.9775 10.92 87.0735 6.44 82.8175 6.44C77.9855 6.44 76.5775 10.088 76.5775 12.136C76.5775 14.184 77.9855 17.128 81.3135 17.128ZM80.5135 10.536C80.5135 10.536 80.4175 6.888 81.8575 6.888C83.3295 6.888 83.2335 10.504 83.2335 10.504L80.5135 10.536ZM92.3885 17.128C93.9565 17.128 95.0765 16.328 95.7805 15.432V17H99.5885V0.327999L95.7805 0.967999V6.856C95.7805 6.856 95.1085 6.184 93.4765 6.184C92.1645 6.184 88.4525 7.272 88.4525 12.584C88.4525 15.368 90.3725 17.128 92.3885 17.128ZM94.4685 15.464C93.4445 15.464 92.6445 13.8 92.6445 11.208C92.6445 8.232 93.4445 6.792 94.3405 6.792C95.0765 6.792 95.6525 7.4 95.7805 7.592V13.96C95.7805 13.96 95.4925 15.464 94.4685 15.464ZM104.075 4.2C105.163 4.2 106.027 3.336 106.027 2.28C106.027 1.192 105.163 0.327999 104.075 0.327999C103.019 0.327999 102.155 1.192 102.155 2.28C102.155 3.336 103.019 4.2 104.075 4.2ZM102.219 16.968H106.027V6.472L102.219 7.144V16.968ZM110.353 17.128C111.312 17.128 112.881 16.488 113.361 15.336C113.617 16.264 114.161 17.128 115.281 17.128C116.913 17.128 118.481 15.496 118.897 13.896L118.513 13.736C118.513 13.736 118.417 14.76 117.777 14.76C117.265 14.76 117.137 14.184 117.137 13.352C117.137 12.52 117.169 11.752 117.169 10.44C117.169 7.208 115.505 6.44 113.489 6.44C110.833 6.44 108.113 7.496 108.113 9.608C108.113 10.312 108.625 11.272 109.713 11.272C110.737 11.272 111.665 10.504 111.665 9.256C111.665 8.104 110.481 7.72 110.481 7.72C110.481 7.72 110.993 7.08 111.889 7.08C113.009 7.08 113.201 8.648 113.201 9.832V11.016C111.889 11.24 107.633 12.232 107.633 14.888C107.633 16.936 109.617 17.128 110.353 17.128ZM112.497 15.304C111.857 15.304 111.536 14.6 111.633 13.416C111.729 12.328 112.465 11.56 113.201 11.4V14.088C113.201 14.728 113.041 15.304 112.497 15.304Z" fill="white"/>
</svg>
